<svg xmlns="http://www.w3.org/2000/svg" viewBox="0 0 464 480"><defs><style>.cls-1{fill:#fff;}</style></defs><g id="Layer_2" data-name="Layer 2"><g id="Layer_5" data-name="Layer 5"><path class="cls-1" d="M352,464H328v16h64V464H368V432H352Z"/><path class="cls-1" d="M224,464H200v16h64V464H240V432H224Z"/><path class="cls-1" d="M96,464H72v16h64V464H112V432H96Z"/><path class="cls-1" d="M16,432H96V384H72a24,24,0,0,1,0-48h64a24,24,0,0,1,0,48H112v48H224V384H200a24,24,0,0,1,0-48h64a24,24,0,0,1,0,48H240v48H352V384H328a24,24,0,0,1,0-48h64a24,24,0,0,1,0,48H368v48h80V288H16Z"/><path class="cls-1" d="M144,360a8,8,0,0,0-8-8H72a8,8,0,0,0,0,16h64A8,8,0,0,0,144,360Z"/><path class="cls-1" d="M176,64V83.35a85.69,85.69,0,0,1-4.42,27.18c-.16.48-.2,1-.36,1.47h25.56c-.16-.48-.2-1-.36-1.47A85.69,85.69,0,0,1,192,83.35V64Z"/><path class="cls-1" d="M168.38,128c-.11,1.55-.38,3.09-.38,4.65V160h32V132.65c0-1.56-.27-3.1-.38-4.65Z"/><path class="cls-1" d="M96,64V83.35a85.69,85.69,0,0,1-4.42,27.18c-.16.48-.2,1-.36,1.47h25.56c-.16-.48-.2-1-.36-1.47A85.69,85.69,0,0,1,112,83.35V64Z"/><path class="cls-1" d="M0,256H464v16H0Z"/><path class="cls-1" d="M32,200a8,8,0,0,1,8-8H416a8,8,0,0,1,8,8v40h24V0H16V240H32ZM32,24a8,8,0,0,1,8-8H424a8,8,0,0,1,8,8V168a8,8,0,0,1-8,8H40a8,8,0,0,1-8-8Z"/><path class="cls-1" d="M48,208H408v32H48Z"/><path class="cls-1" d="M88.38,128c-.11,1.55-.38,3.09-.38,4.65V160h32V132.65c0-1.56-.27-3.1-.38-4.65Z"/><path class="cls-1" d="M400,360a8,8,0,0,0-8-8H328a8,8,0,0,0,0,16h64A8,8,0,0,0,400,360Z"/><path class="cls-1" d="M256,64V83.35a85.69,85.69,0,0,1-4.42,27.18c-.16.48-.2,1-.36,1.47h25.56c-.16-.48-.2-1-.36-1.47A85.69,85.69,0,0,1,272,83.35V64Z"/><path class="cls-1" d="M328.38,128c-.11,1.55-.38,3.09-.38,4.65V160h32V132.65c0-1.56-.27-3.1-.38-4.65Z"/><path class="cls-1" d="M248.38,128c-.11,1.55-.38,3.09-.38,4.65V160h32V132.65c0-1.56-.27-3.1-.38-4.65Z"/><path class="cls-1" d="M272,360a8,8,0,0,0-8-8H200a8,8,0,0,0,0,16h64A8,8,0,0,0,272,360Z"/><path class="cls-1" d="M72,132.65a85.69,85.69,0,0,1,4.42-27.18A70.13,70.13,0,0,0,80,83.35V56a8,8,0,0,1,8-8h32a8,8,0,0,1,8,8V83.35a70.13,70.13,0,0,0,3.58,22.12A85.69,85.69,0,0,1,136,132.65V160h16V132.65a85.69,85.69,0,0,1,4.42-27.18A70.13,70.13,0,0,0,160,83.35V56a8,8,0,0,1,8-8h32a8,8,0,0,1,8,8V83.35a70.13,70.13,0,0,0,3.58,22.12A85.69,85.69,0,0,1,216,132.65V160h16V132.65a85.69,85.69,0,0,1,4.42-27.18A70.13,70.13,0,0,0,240,83.35V56a8,8,0,0,1,8-8h32a8,8,0,0,1,8,8V83.35a70.13,70.13,0,0,0,3.58,22.12A85.69,85.69,0,0,1,296,132.65V160h16V132.65a85.69,85.69,0,0,1,4.42-27.18A70.13,70.13,0,0,0,320,83.35V56a8,8,0,0,1,8-8h32a8,8,0,0,1,8,8V83.35a70.13,70.13,0,0,0,3.58,22.12A85.69,85.69,0,0,1,376,132.65V160h40V32H48V160H72Z"/><path class="cls-1" d="M336,64V83.35a85.69,85.69,0,0,1-4.42,27.18c-.16.48-.2,1-.36,1.47h25.56c-.16-.48-.2-1-.36-1.47A85.69,85.69,0,0,1,352,83.35V64Z"/></g></g></svg>