<svg height="512pt" viewBox="-44 0 512 512.00036" width="512pt" xmlns="http://www.w3.org/2000/svg"><path d="m83.160156 347.003906h30v30h-30zm0 0"/><path d="m101.496094 283.671875h30v30h-30zm0 0"/><path d="m153.492188 328.003906h30v30h-30zm0 0"/><path d="m423.542969 103.472656c-4.414063-31.742187-20.925781-59.867187-46.492188-79.1875-25.570312-19.324218-57.132812-27.53125-88.875-23.121094-31.742187 4.417969-59.867187 20.929688-79.191406 46.496094l-9.042969 11.96875 32.460938 24.53125h-232.402344l22.730469 427.839844h318.691406l17.644531-332.109375 32.3125 24.421875 9.042969-11.964844c19.328125-25.566406 27.539063-57.132812 23.121094-88.875zm-43.089844-32.101562-57.554687 24.558594 7.921874-62.070313c10.023438 3.042969 19.535157 7.855469 28.140626 14.355469 8.605468 6.503906 15.828124 14.34375 21.492187 23.15625zm-88.144531-40.492188c2.921875-.40625 5.839844-.667968 8.75-.792968l-7.957032 62.347656-50.152343-37.90625c13.492187-12.78125 30.582031-21.039063 49.359375-23.648438zm-256.023438 170.78125c9.214844 1.320313 14.953125 4.574219 21.773438 8.460938 10.195312 5.804687 22.882812 13.03125 46.285156 13.03125 23.40625 0 36.09375-7.226563 46.289062-13.03125 8.925782-5.085938 15.980469-9.101563 31.4375-9.101563 15.460938 0 22.515626 4.015625 31.445313 9.101563 10.195313 5.804687 22.882813 13.03125 46.285156 13.03125 23.40625 0 36.09375-7.226563 46.289063-13.03125 6.820312-3.886719 12.5625-7.140625 21.78125-8.460938l-11.210938 210.992188h-269.164062zm14.894532 280.339844-2.09375-39.347656h265.980468l-2.09375 39.347656zm278.300781-310.675781c-18.390625 1.429687-29.277344 7.625-38.234375 12.726562-8.929688 5.085938-15.984375 9.101563-31.445313 9.101563-15.460937 0-22.511719-4.015625-31.441406-9.101563-10.195313-5.804687-22.882813-13.03125-46.289063-13.03125-23.402343 0-36.089843 7.226563-46.285156 13.03125-8.925781 5.085938-15.980468 9.101563-31.441406 9.101563-15.457031 0-22.511719-4.015625-31.4375-9.101563-8.957031-5.101562-19.84375-11.296875-38.234375-12.726562l-3.035156-57.164063h240.457031l58.089844 43.902344zm55.070312-9.777344-50.15625-37.90625 57.808594-24.667969c.675781 2.832032 1.222656 5.710938 1.628906 8.632813 2.609375 18.777343-.667969 37.472656-9.28125 53.941406zm0 0"/></svg>