<svg id="Layer_3" enable-background="new 0 0 64 64" height="512" viewBox="0 0 64 64" width="512" xmlns="http://www.w3.org/2000/svg"><g><path d="m47 61h-3v2h8v-2h-3v-4h-2z"/><path d="m31 61h-3v2h8v-2h-3v-4h-2z"/><path d="m15 61h-3v2h8v-2h-3v-4h-2z"/><path d="m5 57h10v-6h-3c-1.654 0-3-1.346-3-3s1.346-3 3-3h8c1.654 0 3 1.346 3 3s-1.346 3-3 3h-3v6h14v-6h-3c-1.654 0-3-1.346-3-3s1.346-3 3-3h8c1.654 0 3 1.346 3 3s-1.346 3-3 3h-3v6h14v-6h-3c-1.654 0-3-1.346-3-3s1.346-3 3-3h8c1.654 0 3 1.346 3 3s-1.346 3-3 3h-3v6h10v-18h-54z"/><path d="m21 48c0-.552-.448-1-1-1h-8c-.552 0-1 .448-1 1s.448 1 1 1h8c.552 0 1-.448 1-1z"/><path d="m25 11v2.419c0 1.157-.186 2.3-.552 3.397-.02.06-.026.123-.045.184h3.194c-.019-.06-.025-.124-.045-.184-.366-1.097-.552-2.24-.552-3.397v-2.419z"/><path d="m24.047 19c-.013.194-.047.386-.047.581v3.419h4v-3.419c0-.195-.034-.387-.047-.581z"/><path d="m15 11v2.419c0 1.157-.186 2.3-.552 3.397-.02.06-.026.123-.045.184h3.194c-.019-.06-.025-.124-.045-.184-.366-1.097-.552-2.24-.552-3.397v-2.419z"/><path d="m3 35h58v2h-58z"/><path d="m7 28c0-.553.447-1 1-1h47c.553 0 1 .447 1 1v5h3v-30h-54v30h2zm0-22c0-.553.447-1 1-1h48c.553 0 1 .447 1 1v18c0 .553-.447 1-1 1h-48c-.553 0-1-.447-1-1z"/><path d="m9 29h45v4h-45z"/><path d="m14.047 19c-.013.194-.047.386-.047.581v3.419h4v-3.419c0-.195-.034-.387-.047-.581z"/><path d="m53 48c0-.552-.448-1-1-1h-8c-.552 0-1 .448-1 1s.448 1 1 1h8c.552 0 1-.448 1-1z"/><path d="m35 11v2.419c0 1.157-.186 2.3-.552 3.397-.02.06-.026.123-.045.184h3.194c-.019-.06-.025-.124-.045-.184-.366-1.097-.552-2.24-.552-3.397v-2.419z"/><path d="m44.047 19c-.013.194-.047.386-.047.581v3.419h4v-3.419c0-.195-.034-.387-.047-.581z"/><path d="m34.047 19c-.013.194-.047.386-.047.581v3.419h4v-3.419c0-.195-.034-.387-.047-.581z"/><path d="m37 48c0-.552-.448-1-1-1h-8c-.552 0-1 .448-1 1s.448 1 1 1h8c.552 0 1-.448 1-1z"/><path d="m12 19.581c0-1.157.186-2.3.552-3.397.297-.893.448-1.824.448-2.765v-3.419c0-.553.447-1 1-1h4c.553 0 1 .447 1 1v3.419c0 .941.151 1.872.448 2.765.366 1.097.552 2.24.552 3.397v3.419h2v-3.419c0-1.157.186-2.3.552-3.397.297-.893.448-1.824.448-2.765v-3.419c0-.553.447-1 1-1h4c.553 0 1 .447 1 1v3.419c0 .941.151 1.872.448 2.765.366 1.097.552 2.24.552 3.397v3.419h2v-3.419c0-1.157.186-2.3.552-3.397.297-.893.448-1.824.448-2.765v-3.419c0-.553.447-1 1-1h4c.553 0 1 .447 1 1v3.419c0 .941.151 1.872.448 2.765.366 1.097.552 2.24.552 3.397v3.419h2v-3.419c0-1.157.186-2.3.552-3.397.297-.893.448-1.824.448-2.765v-3.419c0-.553.447-1 1-1h4c.553 0 1 .447 1 1v3.419c0 .941.151 1.872.448 2.765.366 1.097.552 2.24.552 3.397v3.419h5v-16h-46v16h3z"/><path d="m45 11v2.419c0 1.157-.186 2.3-.552 3.397-.02.06-.026.123-.045.184h3.194c-.019-.06-.025-.124-.045-.184-.366-1.097-.552-2.24-.552-3.397v-2.419z"/></g></svg>