<svg id="Capa_1" enable-background="new 0 0 509.075 509.075" height="512" viewBox="0 0 509.075 509.075" width="512" xmlns="http://www.w3.org/2000/svg"><path id="XMLID_691_" d="m493.68 88.106v-30h-134.48l-42.04 104.355h-117.053l-17.591-47.128 139.016-51.887-173.834-41.4-8.229-22.046-28.106 10.49 8.229 22.047-104.197 145.174 139.016-51.887 13.675 36.638h-36.628l-4.424 4.591c-36.439 37.808-56.507 87.559-56.507 140.09 0 111.346 90.586 201.933 201.933 201.933 111.346 0 201.932-90.586 201.932-201.933 0-52.532-20.067-102.284-56.507-140.091l-4.424-4.59h-63.958l29.956-74.355h114.221zm-350.921-36.397 75.96 18.09-121.491 45.347zm129.7 427.366c-94.804 0-171.933-77.128-171.933-171.933 0-14.769 1.867-29.279 5.479-43.251h332.906c3.613 13.972 5.479 28.482 5.479 43.251 0 94.805-77.128 171.933-171.931 171.933zm155.606-245.184h-311.213c7.04-14.932 16.263-28.886 27.513-41.43h256.188c11.25 12.544 20.472 26.498 27.512 41.43z"/></svg>