<?xml version="1.0" encoding="iso-8859-1"?>
<!-- Generator: Adobe Illustrator 19.0.0, SVG Export Plug-In . SVG Version: 6.00 Build 0)  -->
<svg version="1.1" id="Capa_1" xmlns="http://www.w3.org/2000/svg" xmlns:xlink="http://www.w3.org/1999/xlink" x="0px" y="0px"
	 viewBox="0 0 512.001 512.001" style="enable-background:new 0 0 512.001 512.001;" xml:space="preserve">
<g>
	<g>
		<g>
			<path d="M323.793,72.228c1.465,1.464,3.385,2.197,5.304,2.197c1.919,0,3.839-0.732,5.304-2.197c2.929-2.929,2.929-7.678,0-10.606
				c-5.268-5.268-5.268-13.838,0-19.106c11.115-11.116,11.115-29.203,0-40.319c-2.93-2.929-7.678-2.929-10.607,0
				c-2.929,2.929-2.929,7.678,0,10.606c5.268,5.268,5.268,13.838,0,19.106C312.678,43.025,312.678,61.112,323.793,72.228z"/>
			<path d="M402.309,64.74c0,7.861,3.062,15.252,8.621,20.81c1.464,1.465,3.384,2.197,5.303,2.197s3.839-0.732,5.304-2.197
				c2.929-2.929,2.929-7.678-0.001-10.606c-2.725-2.726-4.227-6.349-4.227-10.203s1.502-7.477,4.228-10.203
				c11.474-11.474,11.474-30.144,0-41.619c-2.93-2.929-7.679-2.929-10.606,0c-2.93,2.929-2.93,7.677-0.001,10.606
				c5.626,5.626,5.626,14.78,0.001,20.406C405.37,49.489,402.309,56.879,402.309,64.74z"/>
			<path d="M383.386,355.021c1.464,1.465,3.384,2.197,5.303,2.197s3.839-0.732,5.304-2.197c2.929-2.929,2.929-7.678-0.001-10.606
				l-10.399-10.4l10.399-10.399c2.923-2.929,2.923-7.678-0.006-10.607c-2.93-2.929-7.679-2.93-10.606,0l-13.506,13.506h-4.914
				l2.899-2.899c2.929-2.929,2.929-7.678-0.001-10.606c-2.928-2.93-7.677-2.929-10.606,0l-13.505,13.506h-10.855
				c-0.336-0.992-0.735-1.954-1.196-2.882l28.559-28.559c2.929-2.929,2.929-7.678,0-10.606c-2.93-2.929-7.678-2.929-10.607,0
				l-28.558,28.558c-0.928-0.461-1.89-0.86-2.882-1.196v-10.854l13.506-13.506c2.93-2.929,2.93-7.677,0.001-10.606
				c-2.929-2.929-7.678-2.93-10.607,0l-2.9,2.9v-4.913l13.507-13.507c2.929-2.929,2.929-7.678,0-10.606
				c-2.93-2.929-7.678-2.929-10.607,0l-10.399,10.399l-10.398-10.399c-2.929-2.929-7.678-2.929-10.606,0
				c-2.93,2.929-2.93,7.677-0.001,10.606l13.506,13.507v4.912l-2.898-2.899c-2.929-2.929-7.678-2.93-10.606,0
				c-2.93,2.929-2.93,7.677-0.001,10.606l13.506,13.506v10.855c-0.992,0.336-1.954,0.735-2.882,1.196L271.77,284.47
				c-2.93-2.929-7.678-2.929-10.607,0c-2.929,2.929-2.929,7.678,0,10.606l28.559,28.559c-0.461,0.927-0.859,1.89-1.195,2.882
				h-10.855l-13.506-13.506c-2.928-2.93-7.677-2.929-10.606,0c-2.929,2.929-2.929,7.678,0.001,10.606l2.899,2.899h-4.914
				L238.04,313.01c-2.928-2.93-7.677-2.929-10.606,0c-2.929,2.929-2.929,7.678,0.001,10.606l10.399,10.399l-10.399,10.4
				c-2.93,2.929-2.93,7.677-0.001,10.606c1.465,1.465,3.384,2.197,5.304,2.197c1.919,0,3.839-0.732,5.303-2.197l13.506-13.506h4.914
				l-2.899,2.9c-2.93,2.929-2.93,7.677-0.001,10.606c1.465,1.465,3.384,2.197,5.304,2.197c1.919,0,3.839-0.732,5.303-2.197
				l13.506-13.506h10.855c0.336,0.992,0.735,1.955,1.196,2.882l-28.559,28.559c-2.93,2.929-2.93,7.677-0.001,10.606
				c1.465,1.465,3.384,2.197,5.304,2.197c1.919,0,3.839-0.732,5.304-2.197l28.559-28.559c0.927,0.461,1.89,0.859,2.882,1.196v10.855
				l-13.506,13.506c-2.929,2.929-2.929,7.678,0.001,10.607c2.928,2.93,7.677,2.929,10.606,0l2.898-2.899v4.912l-13.506,13.506
				c-2.929,2.929-2.929,7.678,0.001,10.606c2.927,2.929,7.676,2.929,10.606,0l10.398-10.399l10.4,10.399
				c1.464,1.465,3.383,2.197,5.303,2.197c1.919,0,3.839-0.732,5.304-2.197c2.929-2.929,2.929-7.678-0.001-10.606l-13.506-13.506
				v-4.914l2.9,2.9c1.464,1.465,3.384,2.197,5.303,2.197s3.839-0.733,5.304-2.197c2.929-2.929,2.929-7.678-0.001-10.607
				l-13.506-13.506V356.2c0.992-0.336,1.954-0.735,2.882-1.196l28.558,28.558c1.465,1.464,3.385,2.197,5.304,2.197
				c1.919,0,3.839-0.732,5.304-2.197c2.929-2.929,2.929-7.678,0-10.606l-28.559-28.559c0.461-0.928,0.859-1.891,1.196-2.882h10.855
				l13.505,13.506c1.465,1.465,3.384,2.197,5.304,2.197c1.919,0,3.839-0.732,5.303-2.197c2.93-2.929,2.93-7.677,0.001-10.606
				l-2.899-2.9h4.914L383.386,355.021z M310.707,342.438c-4.645,0-8.423-3.779-8.423-8.423c0-4.645,3.778-8.423,8.423-8.423
				c4.645,0,8.424,3.779,8.424,8.423C319.131,338.659,315.352,342.438,310.707,342.438z"/>
			<path d="M225.33,67.702c0,7.861,3.061,15.251,8.621,20.81c1.464,1.464,3.384,2.196,5.303,2.196s3.839-0.732,5.304-2.197
				c2.929-2.929,2.929-7.678-0.001-10.607c-2.726-2.725-4.227-6.348-4.227-10.202c0-3.854,1.502-7.478,4.227-10.203
				c11.474-11.475,11.474-30.145,0-41.619c-2.93-2.929-7.679-2.93-10.606,0c-2.93,2.929-2.93,7.677-0.001,10.606
				c5.626,5.626,5.626,14.78,0.001,20.406C228.392,52.45,225.33,59.841,225.33,67.702z"/>
			<path d="M476.804,156.376c-3.385-3.745-7.812-6.338-12.641-7.513l0.785-4.772c1.694-10.298-5.306-20.055-15.603-21.749
				l-42.474-6.988v-9.136c0-10.437-8.491-18.927-18.928-18.927h-66.955c-10.437,0-18.927,8.491-18.927,18.927v1.909l-39.15,7.333
				c-1.353-9.118-9.21-16.143-18.699-16.143h-66.955c-10.436,0-18.928,8.491-18.928,18.927v30.38
				c-5.247,1.033-10.084,3.729-13.72,7.752c-4.728,5.229-7.031,12.25-6.321,19.264l4.898,48.417H99.194
				c-38.844,0-70.446,31.602-70.446,70.446v63.476c0,38.844,31.603,70.446,70.446,70.446h64.668l1.725,17.056
				c0.001,0.007,0.001,0.013,0.002,0.02l3.185,31.487c2.02,19.961,18.671,35.013,38.733,35.013h206.396
				c20.063,0,36.715-15.052,38.734-35.013l3.185-31.487c0.001-0.007,0.001-0.014,0.002-0.021l16.054-158.693
				c0.417-4.121-2.586-7.8-6.707-8.217c-4.127-0.413-7.801,2.587-8.217,6.707l-15.371,151.946H243.656c-4.143,0-7.5,3.358-7.5,7.5
				c0,4.142,3.357,7.5,7.5,7.5h196.412l-2.353,23.254c-1.241,12.27-11.477,21.523-23.81,21.523H207.509
				c-12.332,0-22.568-9.253-23.81-21.523l-2.352-23.254h27.849c4.143,0,7.5-3.358,7.5-7.5c0-4.142-3.357-7.5-7.5-7.5H179.83
				l-1.726-17.065c0-0.001,0-0.001,0-0.002l-4.778-47.232v-0.001l-15.469-152.914c7.927-0.825,15.959,0.599,23.148,4.193
				c15.987,7.994,35.076,7.993,51.061,0c11.785-5.893,25.857-5.893,37.643,0c7.993,3.997,16.762,5.995,25.53,5.995
				c8.77,0,17.538-1.999,25.531-5.995c11.784-5.892,25.855-5.894,37.643,0.001c15.986,7.992,35.074,7.993,51.061-0.001
				c11.784-5.892,25.855-5.894,37.643,0.001c4.931,2.465,10.124,4.162,15.502,5.112l-1.975,19.519
				c-0.417,4.121,2.586,7.8,6.707,8.217c0.257,0.026,0.511,0.039,0.764,0.039c3.803,0,7.063-2.881,7.453-6.746l7.558-74.703
				C483.835,168.627,481.531,161.605,476.804,156.376z M406.872,130.556l40.038,6.587c2.137,0.352,3.589,2.376,3.237,4.513
				l-1.068,6.491h-42.207V130.556z M320.99,102.292h66.955c2.166,0,3.928,1.762,3.928,3.927v41.929h-55.925l-4.906-26.192
				c-0.932-4.969-3.741-9.279-7.913-12.134c-1.874-1.282-3.927-2.181-6.065-2.722v-0.881h-0.001
				C317.063,104.053,318.825,102.292,320.99,102.292z M257.16,131.798l53.907-10.097c0.003-0.001,0.007-0.001,0.01-0.002
				l0.637-0.119c1.031-0.19,2.075,0.027,2.941,0.619c0.865,0.593,1.449,1.487,1.642,2.518l4.389,23.43h-76.111l-1.809-9.657
				c-0.193-1.031,0.026-2.076,0.619-2.941c0.593-0.866,1.486-1.449,2.518-1.642l11.233-2.104
				C257.144,131.801,257.152,131.8,257.16,131.798z M159.084,381.188v0.002l3.261,32.233H99.194
				c-30.573,0-55.446-24.873-55.446-55.446v-63.476c0-30.573,24.873-55.446,55.446-55.446h45.511l3.261,32.233H99.194
				c-12.799,0-23.212,10.413-23.212,23.212v63.476c0,12.799,10.413,23.212,23.212,23.212H159.084z M149.484,286.29l8.083,79.9
				H99.194c-4.528,0-8.212-3.684-8.212-8.212v-63.476c0-4.528,3.684-8.212,8.212-8.212H149.484z M468.201,174.13l-4.069,40.216
				c-3.569-0.73-7.019-1.915-10.308-3.56c-15.985-7.994-35.073-7.994-51.061,0c-11.785,5.893-25.858,5.893-37.644,0
				c-15.985-7.994-35.073-7.994-51.061,0c-11.784,5.892-25.857,5.893-37.644,0c-15.986-7.994-35.074-7.994-51.061,0
				c-11.785,5.893-25.858,5.893-37.644,0c-9.743-4.872-20.626-6.808-31.366-5.698l-3.132-30.959
				c-0.288-2.843,0.609-5.576,2.524-7.695c1.916-2.12,4.545-3.287,7.402-3.287h13.456c4.143,0,7.5-3.358,7.5-7.5
				c0-4.142-3.357-7.5-7.5-7.5h-3.266v-29.903c0-2.165,1.762-3.927,3.928-3.927h66.955c2.159,0,3.916,1.753,3.925,3.911
				l-4.997,0.936c-4.97,0.931-9.278,3.741-12.134,7.913c-2.856,4.172-3.916,9.206-2.985,14.175l1.292,6.895H212.22
				c-4.143,0-7.5,3.358-7.5,7.5c0,4.142,3.357,7.5,7.5,7.5h25.984c0.01,0,0.02,0,0.03,0h91.444c0.011,0,0.022,0.001,0.033,0.001
				s0.021-0.001,0.032-0.001h125.699c0.004,0,0.008,0.001,0.012,0.001c0.007,0,0.014-0.001,0.022-0.001h2.798
				c2.857,0,5.485,1.167,7.401,3.287C467.592,168.554,468.489,171.287,468.201,174.13z"/>
		</g>
	</g>
</g>
<g>
</g>
<g>
</g>
<g>
</g>
<g>
</g>
<g>
</g>
<g>
</g>
<g>
</g>
<g>
</g>
<g>
</g>
<g>
</g>
<g>
</g>
<g>
</g>
<g>
</g>
<g>
</g>
<g>
</g>
</svg>
