<svg xmlns="http://www.w3.org/2000/svg" viewBox="0 0 512 512.5"><defs><style>.cls-1{fill:#fd9727;}.cls-2{fill:#e57f23;}.cls-3{fill:#4a4256;}.cls-4{fill:#77d057;}.cls-5{fill:#68b543;}.cls-6{fill:#602952;}.cls-7{fill:#306318;}.cls-8{fill:#2c5114;}.cls-9{fill:#e9eaeb;}.cls-10{fill:#b6d1c6;}.cls-11{fill:#512047;}.cls-12{fill:#fff;}.cls-13{fill:#fc502a;}.cls-14{fill:#e60d28;}.cls-15{fill:#cdeae0;}.cls-16{fill:#352f3f;}.cls-17{fill:#fd4e26;}.cls-18{fill:#fd3018;}</style></defs><g id="Layer_2" data-name="Layer 2"><g id="non-alcoholic"><path class="cls-1" d="M399.92,207.72s5-5,5-28.29c0-33.78-12.48-58.12-12.48-58.12h-43S337,145.65,337,179.43c0,23.27,5,28.29,5,28.29L303.6,238.26a25.94,25.94,0,0,0-9.79,20.31V497.13a15.37,15.37,0,0,0,15.37,15.37H432.69a15.37,15.37,0,0,0,15.37-15.37V258.57a25.94,25.94,0,0,0-9.79-20.31Z"/><path class="cls-2" d="M438.27,238.26l-38.35-30.54s5-5,5-28.29c0-33.78-12.48-58.12-12.48-58.12H360.19c-1.07,18-2.62,39.89-4,58.08A68.79,68.79,0,0,0,382,238.26h0a26,26,0,0,1,9.8,20.31V497.12a15.38,15.38,0,0,1-15.38,15.38h56.3a15.37,15.37,0,0,0,15.37-15.38V258.57A25.94,25.94,0,0,0,438.27,238.26Z"/><rect class="cls-3" x="293.81" y="274.01" width="154.26" height="206.21"/><path class="cls-3" d="M404.87,177.09c-.55-32.55-12.45-55.78-12.45-55.78h-43S337.56,144.54,337,177.09Z"/><path class="cls-4" d="M158.37,212.6V161.72H119.45V212.6A31.33,31.33,0,0,1,92,243.7h0a32,32,0,0,0-28,31.71v223A14.08,14.08,0,0,0,78,512.5H199.82a14.07,14.07,0,0,0,14.07-14.08v-223a32,32,0,0,0-28-31.71h0A31.34,31.34,0,0,1,158.37,212.6Z"/><path class="cls-5" d="M185.87,243.7h0a31.34,31.34,0,0,1-27.5-31.1V161.72H131.06v336.7A14.07,14.07,0,0,1,117,512.5h82.83a14.07,14.07,0,0,0,14.07-14.08v-223A32,32,0,0,0,185.87,243.7Z"/><path class="cls-6" d="M159.86,208.24H118A3.93,3.93,0,0,1,114,204.3V165.65a3.93,3.93,0,0,1,3.93-3.93h41.89a3.93,3.93,0,0,1,3.93,3.93V204.3A3.93,3.93,0,0,1,159.86,208.24Z"/><path class="cls-7" d="M92,243.7h0a32,32,0,0,0-28,31.71v223A14.08,14.08,0,0,0,78,512.5H199.82a14.07,14.07,0,0,0,14.07-14.08v-223a32,32,0,0,0-28-31.71h0C181.64,243.18,96.18,243.18,92,243.7Z"/><path class="cls-8" d="M212.68,266.67a32.09,32.09,0,0,0-2.06-5.36c-.42-.85-.88-1.69-1.37-2.5a32.09,32.09,0,0,0-23.38-15.11h0c-2.36-.29-30.07-.42-54.8-.38v255.1A14.08,14.08,0,0,1,117,512.5h82.83a14.08,14.08,0,0,0,14.08-14.08v-223A32.37,32.37,0,0,0,212.68,266.67Z"/><path class="cls-9" d="M192.55,449.43v-157a10.05,10.05,0,0,0-10.06-10.06H95.33a10.06,10.06,0,0,0-10.06,10.06v157a7.23,7.23,0,0,0,7.23,7.23h92.82A7.23,7.23,0,0,0,192.55,449.43Z"/><path class="cls-10" d="M131.07,456.66h54.25a7.23,7.23,0,0,0,7.23-7.23v-157a10.05,10.05,0,0,0-10.06-10.06H131.06V456.66Z"/><circle class="cls-6" cx="138.91" cy="329.37" r="25.99"/><path class="cls-11" d="M131.07,354.15a25.72,25.72,0,0,0,7.84,1.21,26,26,0,1,0-7.84-50.77Z"/><path class="cls-12" d="M160.51,440.47h-43.2a7.62,7.62,0,0,1,0-15.23h43.2a7.62,7.62,0,0,1,0,15.23Z"/><rect class="cls-13" x="85.27" y="376.69" width="107.28" height="27.29"/><rect class="cls-14" x="131.07" y="376.69" width="61.49" height="27.29"/><path class="cls-15" d="M318,471.31a9.7,9.7,0,0,1-3.82-8.07l5-288.54a16.19,16.19,0,0,0-4.57-12l-29.42-30.29a24,24,0,0,1-6.79-16.73V.52h-51V115.71a24,24,0,0,1-6.79,16.73l-29.42,30.29a16.23,16.23,0,0,0-4.57,12l5,288.54a9.71,9.71,0,0,1-3.82,8.07,6.64,6.64,0,0,0-2.76,5.61l.67,24.85a11,11,0,0,0,11,10.73H309.09a11,11,0,0,0,11-10.73l.68-24.85A6.69,6.69,0,0,0,318,471.31Z"/><path class="cls-10" d="M318,471.31a9.7,9.7,0,0,1-3.82-8.07l5-288.54a16.19,16.19,0,0,0-4.57-12l-29.42-30.29a24,24,0,0,1-6.79-16.73V.52h-51V112.75a9.66,9.66,0,0,0,1.66,5.41l30.21,44.57a16.2,16.2,0,0,1,4.58,12l-5,288.54a9.73,9.73,0,0,0,3.82,8.07,6.69,6.69,0,0,1,2.76,5.61l-.67,24.85a11,11,0,0,1-11,10.73h55.31a11,11,0,0,0,11-10.73l.68-24.85A6.69,6.69,0,0,0,318,471.31Z"/><path class="cls-14" d="M277,99.7H229a4.21,4.21,0,0,1-4.21-4.21V4.71A4.22,4.22,0,0,1,229,.5h48a4.22,4.22,0,0,1,4.22,4.21V95.49A4.22,4.22,0,0,1,277,99.7Z"/><path class="cls-13" d="M217.74,228.82c22.59-14.85,47.83-14.85,70.43,0a3.23,3.23,0,0,0,5-2.56l.61-14.69a12.25,12.25,0,0,0-7.47-11.79,84.78,84.78,0,0,0-66.74,0,12.28,12.28,0,0,0-7.47,11.8l.6,14.68A3.25,3.25,0,0,0,217.74,228.82Z"/><path class="cls-12" d="M281.8,433.63H224.11a7.61,7.61,0,0,1,0-15.22H281.8a7.61,7.61,0,1,1,0,15.22Z"/><path class="cls-12" d="M281.8,457.5H224.11a7.61,7.61,0,0,1,0-15.22H281.8a7.61,7.61,0,1,1,0,15.22Z"/><path class="cls-13" d="M282.36,325.05H223.55a4.94,4.94,0,0,1-4.94-4.85l-.85-46.26a5,5,0,0,1,4.94-5h60.51a4.94,4.94,0,0,1,4.94,5l-.85,46.26A4.93,4.93,0,0,1,282.36,325.05Z"/><rect class="cls-9" x="224.74" y="19.87" width="56.44" height="15.22"/><rect class="cls-16" x="391.77" y="274.01" width="56.3" height="206.21"/><path class="cls-9" d="M405.85,331.63c-23.55-10.5-46.22-10.53-69.83,0a6,6,0,0,1-7.62-2.46l-5.86-9.89a6.06,6.06,0,0,1,2.68-8.59c30.37-14.05,61-14.06,91.43,0a6.06,6.06,0,0,1,2.68,8.59l-5.86,9.89A6,6,0,0,1,405.85,331.63Z"/><ellipse class="cls-9" cx="370.94" cy="382.84" rx="38.46" ry="26.37"/><path class="cls-12" d="M410.83,450.77H331a7.62,7.62,0,0,1,0-15.23h79.79a7.62,7.62,0,0,1,0,15.23Z"/><path class="cls-10" d="M391.77,360.68V405c10.6-4.69,17.63-12.86,17.63-22.16S402.37,365.38,391.77,360.68Z"/><path class="cls-10" d="M416.65,310.7a115.47,115.47,0,0,0-24.88-8.35v24.23a98.55,98.55,0,0,1,14.08,5.05,6,6,0,0,0,7.62-2.45l5.87-9.89A6.07,6.07,0,0,0,416.65,310.7Z"/><path class="cls-16" d="M404.87,177.09c-.5-29.49-10.31-51.33-12.15-55.18,0,0,0,0,0-.08s-.11-.22-.14-.3l-.11-.22H360.19c-1,17.22-2.49,38.07-3.8,55.78Z"/><path class="cls-3" d="M396.81,128.64H345.06a4.14,4.14,0,0,1-4.14-4.14V79.22a4.14,4.14,0,0,1,4.14-4.15h51.75A4.14,4.14,0,0,1,401,79.22V124.5A4.14,4.14,0,0,1,396.81,128.64Z"/><rect class="cls-9" x="340.92" y="94.4" width="60.04" height="14.11"/><path class="cls-14" d="M283.21,268.9H262.28l-1,56.15h21.06a4.93,4.93,0,0,0,4.94-4.85l.85-46.26A4.94,4.94,0,0,0,283.21,268.9Z"/><path class="cls-14" d="M286.33,199.8a87,87,0,0,0-22.75-6.15l-.43,24.95a66.78,66.78,0,0,1,25,10.24,3.23,3.23,0,0,0,5-2.56l.61-14.69A12.25,12.25,0,0,0,286.33,199.8Z"/><path class="cls-17" d="M256,0C115,0,0,114.7,0,256,0,396.7,115,512,256,512c141.3,0,256-115.6,256-256C512,115,396.7,0,256,0Zm0,482c-123.9.3-226.3-101.8-226-226,0-57.3,22.6-109.5,56.8-147.9L256,277.3,403.9,425.2C365.5,459.4,313.3,482,256,482Zm169.2-78.1L108.1,86.8C146.5,52.6,198.7,30,256,30c124.2,0,226,101.8,226,226C482,313.6,459.4,365.5,425.2,403.9Z"/><path class="cls-18" d="M512,256c0,140.4-114.7,256-256,256V482c57.3,0,109.5-22.6,147.9-56.8L256,277.3V234.7L425.2,403.9C459.4,365.5,482,313.6,482,256,482,131.8,380.2,30,256,30V0C396.7,0,512,115,512,256Z"/></g></g></svg>