<?xml version="1.0" encoding="iso-8859-1"?>
<!-- Generator: Adobe Illustrator 19.0.0, SVG Export Plug-In . SVG Version: 6.00 Build 0)  -->
<svg version="1.1" id="Capa_1" xmlns="http://www.w3.org/2000/svg" xmlns:xlink="http://www.w3.org/1999/xlink" x="0px" y="0px"
	 viewBox="0 0 512 512" style="enable-background:new 0 0 512 512;" xml:space="preserve">
<g>
	<g>
		<g>
			<path d="M176.885,143.4c0,4.142,3.358,7.5,7.5,7.5h84.808c4.142,0,7.5-3.358,7.5-7.5c0-4.142-3.358-7.5-7.5-7.5h-12.112
				c0.507-2.292,0.766-4.656,0.766-7.061c0-17.517-13.932-31.767-31.058-31.767c-17.125,0-31.058,14.251-31.058,31.767
				c0,2.404,0.258,4.768,0.766,7.061h-12.112C180.243,135.9,176.885,139.258,176.885,143.4z M226.789,112.072
				c8.854,0,16.058,7.522,16.058,16.768c0,2.478-0.507,4.87-1.485,7.061h-29.145c-0.978-2.191-1.485-4.583-1.485-7.061
				C210.731,119.594,217.935,112.072,226.789,112.072z"/>
			<path d="M363.273,136.153c0.074-0.816,0.112-1.637,0.112-2.46v-9.707c0-14.613-11.46-26.543-25.681-26.906l41.89-86.303
				c1.809-3.727,0.254-8.213-3.472-10.022c-3.726-1.809-8.214-0.254-10.022,3.472L302.188,135.9h-6.611c-4.142,0-7.5,3.358-7.5,7.5
				c0,4.142,3.358,7.5,7.5,7.5h11.142c0.106,0.002,0.214,0.002,0.321,0h18.691c4.142,0,7.5-3.358,7.5-7.5c0-4.142-3.358-7.5-7.5-7.5
				h-6.869l11.565-23.828h6.611c6.256,0,11.346,5.345,11.346,11.914v9.707c0,2.138-0.531,4.167-1.58,6.031
				c-1.306,2.322-1.281,5.163,0.064,7.463c1.345,2.299,3.81,3.713,6.474,3.713h6.311c6.256,0,11.346,5.345,11.346,11.914v9.707
				c0,6.569-5.09,11.914-11.346,11.914H256.786c-4.142,0-7.5,3.358-7.5,7.5v9.707c0,6.569-5.09,11.914-11.346,11.914
				c-6.256,0-11.346-5.345-11.346-11.914c0-4.142-3.358-7.5-7.5-7.5c-4.142,0-7.5,3.358-7.5,7.5v48.535
				c0,6.569-5.09,11.914-11.346,11.914s-11.346-5.345-11.346-11.914v-58.242c0-4.142-3.358-7.5-7.5-7.5h-29.055
				c-6.256,0-11.346-5.345-11.346-11.914v-9.707c0-6.569,5.09-11.914,11.346-11.914h6.311c2.664,0,5.128-1.414,6.474-3.713
				c1.345-2.3,1.37-5.141,0.064-7.463c-1.048-1.864-1.58-3.893-1.58-6.031v-9.707c0-6.569,5.09-11.914,11.346-11.914h11.965
				c2.664,0,5.128-1.414,6.474-3.713c1.345-2.299,1.37-5.14,0.064-7.462c-1.048-1.863-1.579-3.893-1.579-6.031v-9.707
				c0-6.569,5.09-11.914,11.346-11.914h23.558c3.095,0,5.872-1.9,6.991-4.785l9.827-25.309c2.061-5.306,6.925-8.734,12.393-8.734
				c5.468,0,10.333,3.428,12.393,8.734l9.827,25.309c1.12,2.885,3.896,4.785,6.991,4.785h23.558c2.117,0,4.179,0.614,5.963,1.777
				c3.47,2.26,8.117,1.279,10.378-2.192c2.26-3.471,1.279-8.117-2.192-10.378c-4.227-2.752-9.119-4.207-14.149-4.207h-18.424
				l-7.969-20.524C278.058,26.6,267.705,19.416,256,19.416c-11.705,0-22.058,7.184-26.376,18.304l-7.969,20.524h-18.424
				c-14.527,0-26.346,12.074-26.346,26.914v9.707c0,0.737,0.03,1.474,0.09,2.207h-2.013c-14.527,0-26.346,12.074-26.346,26.914
				v9.707c0,0.823,0.038,1.644,0.112,2.46C135.905,137.959,126,149.227,126,162.814v9.707c0,11.077,6.585,20.613,15.965,24.736
				l2.849,34.076c0.003,0.042,0.007,0.084,0.01,0.126l5.168,61.823c0.484,5.796,3.857,10.611,8.625,13.052l8.323,160.154
				c0.376,7.236,5.109,13.231,11.53,15.414l5.912,18.27c2.29,7.074,8.75,11.828,16.075,11.828h111.085
				c7.325,0,13.786-4.753,16.075-11.828l5.912-18.27c6.421-2.183,11.154-8.178,11.53-15.414l8.323-160.153
				c4.768-2.441,8.141-7.256,8.625-13.052l1.109-13.277c0.005-0.05,0.009-0.1,0.013-0.15l6.905-82.598
				c9.38-4.124,15.965-13.66,15.965-24.736v-9.707C386,149.227,376.095,137.959,363.273,136.153z M157.2,199.435h16.701v23.828
				h-14.709L157.2,199.435z M347.06,292.033c-0.048,0.576-0.438,1.027-0.887,1.027c-3.991,0-7.283,3.125-7.49,7.111l-8.603,165.538
				c-0.061,1.165-0.904,2.078-1.92,2.078h-31.328c-4.142,0-7.5,3.358-7.5,7.5c0,4.142,3.358,7.5,7.5,7.5h20.645l-4.131,12.767
				c-0.28,0.865-1.005,1.447-1.804,1.447H200.458c-0.799,0-1.524-0.582-1.804-1.446l-4.131-12.768h74.356c4.142,0,7.5-3.358,7.5-7.5
				c0-4.142-3.358-7.5-7.5-7.5H183.84c-1.016,0-1.859-0.913-1.92-2.077l-8.603-165.538c-0.207-3.985-3.499-7.111-7.49-7.111
				c-0.449,0-0.839-0.451-0.887-1.027l-4.495-53.77h13.456v11.914c0,14.84,11.819,26.914,26.346,26.914
				c12.898,0,23.662-9.517,25.913-22.039l24.536,15.797c16.206,10.434,34.879,15.949,54.002,15.949h42.799L347.06,292.033z
				 M348.751,271.798h-44.053c-16.237,0-32.103-4.689-45.882-13.561l-29.55-19.025c-0.879-0.566-1.772-1.121-2.672-1.662v-11.62
				c3.438,1.683,7.286,2.626,11.346,2.626c14.527,0,26.346-12.074,26.346-26.914v-2.207H354.8L348.751,271.798z"/>
		</g>
	</g>
</g>
<g>
</g>
<g>
</g>
<g>
</g>
<g>
</g>
<g>
</g>
<g>
</g>
<g>
</g>
<g>
</g>
<g>
</g>
<g>
</g>
<g>
</g>
<g>
</g>
<g>
</g>
<g>
</g>
<g>
</g>
</svg>
